<svg xmlns="http://www.w3.org/2000/svg" xmlns:xlink="http://www.w3.org/1999/xlink" width="72" height="72" viewBox="0 0 72 72">
  <defs>
    <filter id="Ellipse_4" x="0" y="0" width="72" height="72" filterUnits="userSpaceOnUse">
      <feOffset dy="3" input="SourceAlpha"/>
      <feGaussianBlur stdDeviation="3" result="blur"/>
      <feFlood flood-opacity="0.702"/>
      <feComposite operator="in" in2="blur"/>
      <feComposite in="SourceGraphic"/>
    </filter>
  </defs>
  <g id="Group_6" data-name="Group 6" transform="translate(-52 -527)">
    <g transform="matrix(1, 0, 0, 1, 52, 527)" filter="url(#Ellipse_4)">
      <circle id="Ellipse_4-2" data-name="Ellipse 4" cx="27" cy="27" r="27" transform="translate(9 6)" fill="#fff"/>
    </g>
    <path id="Icon_awesome-facebook-square" data-name="Icon awesome-facebook-square" d="M23.214,2.25H2.786A2.786,2.786,0,0,0,0,5.036V25.464A2.786,2.786,0,0,0,2.786,28.25h7.965V19.411H7.095V15.25h3.656V12.079c0-3.607,2.147-5.6,5.436-5.6a22.15,22.15,0,0,1,3.222.281V10.3H17.595a2.08,2.08,0,0,0-2.346,2.248v2.7h3.992L18.6,19.411H15.249V28.25h7.965A2.786,2.786,0,0,0,26,25.464V5.036A2.786,2.786,0,0,0,23.214,2.25Z" transform="translate(75 544.75)" fill="#b36705"/>
  </g>
</svg>
