<svg xmlns="http://www.w3.org/2000/svg" width="49" height="49" viewBox="0 0 49 49">
  <g id="Group_19" data-name="Group 19" transform="translate(0.222 -0.333)">
    <circle id="Ellipse_5" data-name="Ellipse 5" cx="24.5" cy="24.5" r="24.5" transform="translate(-0.222 0.333)" fill="#6fda44"/>
    <path id="Icon_simple-upwork" data-name="Icon simple-upwork" d="M24.978,18.246a6.6,6.6,0,0,1-4.137-1.651l.307-1.448.011-.057c.279-1.538,1.143-4.118,3.82-4.118a3.637,3.637,0,1,1,0,7.274Zm0-10.954c-3.417,0-6.069,2.219-7.146,5.875a30.05,30.05,0,0,1-3.616-7.929H10.534v9.571a3.426,3.426,0,1,1-6.852,0V5.238H0v9.571a7.108,7.108,0,1,0,14.216,0v-1.6a22.586,22.586,0,0,0,2.656,4.335L14.621,28.137h3.764l1.632-7.684a9.074,9.074,0,0,0,4.96,1.492,7.327,7.327,0,0,0,0-14.654Z" transform="translate(8.667 7.762)" fill="#fff"/>
  </g>
</svg>
