<svg xmlns="http://www.w3.org/2000/svg" width="69.074" height="55.259" viewBox="0 0 69.074 55.259">
  <path id="Icon_awesome-laptop" data-name="Icon awesome-laptop" d="M67.347,44.9H41.179a3.4,3.4,0,0,1-3.534,3.454H31.083A3.665,3.665,0,0,1,27.546,44.9H1.727A1.732,1.732,0,0,0,0,46.625v1.727a6.928,6.928,0,0,0,6.907,6.907H62.166a6.928,6.928,0,0,0,6.907-6.907V46.625A1.732,1.732,0,0,0,67.347,44.9ZM62.166,5.181A5.2,5.2,0,0,0,56.986,0h-44.9A5.2,5.2,0,0,0,6.907,5.181V41.444H62.166ZM55.259,34.537H13.815V6.907H55.259Z" transform="translate(0)" fill="#fff"/>
</svg>
