<svg xmlns="http://www.w3.org/2000/svg" xmlns:xlink="http://www.w3.org/1999/xlink" width="72" height="72" viewBox="0 0 72 72">
  <defs>
    <filter id="Ellipse_4" x="0" y="0" width="72" height="72" filterUnits="userSpaceOnUse">
      <feOffset dy="3" input="SourceAlpha"/>
      <feGaussianBlur stdDeviation="3" result="blur"/>
      <feFlood flood-opacity="0.702"/>
      <feComposite operator="in" in2="blur"/>
      <feComposite in="SourceGraphic"/>
    </filter>
  </defs>
  <g id="Group_11" data-name="Group 11" transform="translate(-52 -658)">
    <g transform="matrix(1, 0, 0, 1, 52, 658)" filter="url(#Ellipse_4)">
      <circle id="Ellipse_4-2" data-name="Ellipse 4" cx="27" cy="27" r="27" transform="translate(9 6)" fill="#fff"/>
    </g>
    <path id="Icon_awesome-twitter" data-name="Icon awesome-twitter" d="M23.327,9.86c.017.284.017.569.017.853,0,8.673-5.362,18.667-15.161,18.667A13.093,13.093,0,0,1,0,26.435a8.975,8.975,0,0,0,1.287.081,9.483,9.483,0,0,0,6.616-2.8c-2.343-.061-4.306-1.95-4.982-4.55a5.49,5.49,0,0,0,1.006.1,4.645,4.645,0,0,0,1.4-.223c-2.442-.609-4.273-3.25-4.273-6.439v-.081a4.635,4.635,0,0,0,2.409.833A7.059,7.059,0,0,1,1.089,7.89a7.7,7.7,0,0,1,.726-3.311A14.446,14.446,0,0,0,12.8,11.445a9.057,9.057,0,0,1-.132-1.5c0-3.616,2.376-6.561,5.329-6.561a4.914,4.914,0,0,1,3.893,2.072,9.392,9.392,0,0,0,3.382-1.584,6.477,6.477,0,0,1-2.343,3.616A9.154,9.154,0,0,0,26,6.468,13.241,13.241,0,0,1,23.327,9.86Z" transform="translate(75 674.619)" fill="#b36705"/>
  </g>
</svg>
